<svg id="flavicon" xmlns="http://www.w3.org/2000/svg" xmlns:xlink="http://www.w3.org/1999/xlink" viewBox="0 0 300 300"><defs><style>.cls-1{fill:none;}.cls-2{fill:#fff;}.cls-3{fill:#28c3dc;}.cls-4{fill:#ff3232;stroke:#dc2d50;}.cls-4,.cls-7{stroke-miterlimit:10;stroke-width:0.5px;}.cls-5,.cls-7{fill:#ffeb7d;}.cls-6{clip-path:url(#clip-path);}.cls-7{stroke:#d7461e;}</style><clipPath id="clip-path" transform="translate(-50 -50)"><path class="cls-1" d="M158.05,119.76c-2.1,1.59-19.42,15.39-30.7,33.11,0,0-5.78,8.89.81,9.81,8.71,1.2,41.94,23,64.76,51.58,6.12,7.67,46.74,59.25,88.59,67.67,7.2,1.44,11.84-13.77,5.11-23.31-4.23-6-19.12-23.57-25.42-43.43l-5.76,4.7s-4.95,3.77-7.39.48a5.49,5.49,0,0,1,.32-7.23l8-6.43-3.3-6-8.44,6.48s-4.17,2.9-6.42,0c-3.4-4.36,1.44-7.87,1.44-7.87l9.16-6.27-3.23-5.64L236,192.89s-5.25,2.73-7.56-1c-3-4.89,3.22-7.4,3.22-7.4l9.55-5-3.13-5.59L227.8,178.1s-4.55,2.41-6.43-1.92c-2.35-5.45,5.09-8.09,5.09-8.09l8.73-3.16s-.37-5.05-4.87-11c0,0-2.88-3.47-3-5.56-.22-3.53-2.84-2.3-11.25,1.13-19.07,7.76-38.65,2.55-39.82-18.29C176.1,124.37,173.21,109.69,158.05,119.76Z"/></clipPath></defs><circle id="fondo" class="cls-2" cx="150" cy="150" r="150"/><path id="v1" class="cls-3" d="M257.74,286.21s-82.49,1.66-147.63-10.66c0,0,107.4,5.37,141.91,9.28Z" transform="translate(-50 -50)"/><path id="v2" class="cls-3" d="M228.47,274.64c-27.67-.75-88.58-9.83-118.36-19.71,0,0,61.76,8.35,115.86,18.26Z" transform="translate(-50 -50)"/><path id="v3" class="cls-3" d="M209.93,262.2c-15.23-1.17-76.47-20.61-99.82-34.11,0,0,57.58,18,96.52,31.52Z" transform="translate(-50 -50)"/><path id="suela" class="cls-4" d="M279.28,285.19c-15.86,1-40-4.57-66.11-25-40-31.24-87.31-68.76-83.89-65.89,0,0-15-9.6-16.87-21.59,0,0-2.8,4-2.21,5.8,1.52,4.62,10.62,14.61,17.5,19l83.6,65.72C218.75,269.23,254.64,294.41,279.28,285.19Z" transform="translate(-50 -50)"/><path class="cls-4" d="M158.05,119.76c-2.1,1.59-19.42,15.39-30.7,33.11,0,0-5.78,8.89.81,9.81,8.71,1.2,41.94,23,64.76,51.58,6.12,7.67,46.74,59.25,88.59,67.67,7.2,1.44,11.84-13.77,5.11-23.31-4.23-6-19.12-23.57-25.42-43.43l-5.76,4.7s-4.95,3.77-7.39.48a5.49,5.49,0,0,1,.32-7.23l8-6.43-3.3-6-8.44,6.48s-4.17,2.9-6.42,0c-3.4-4.36,1.44-7.87,1.44-7.87l9.16-6.27-3.23-5.64L236,192.89s-5.25,2.73-7.56-1c-3-4.89,3.22-7.4,3.22-7.4l9.55-5-3.13-5.59L227.8,178.1s-4.55,2.41-6.43-1.92c-2.35-5.45,5.09-8.09,5.09-8.09l8.73-3.16s-.37-5.05-4.87-11c0,0-2.88-3.47-3-5.56-.22-3.53-2.84-2.3-11.25,1.13-19.07,7.76-38.65,2.55-39.82-18.29C176.1,124.37,173.21,109.69,158.05,119.76Z" transform="translate(-50 -50)"/><path id="flama_frente" data-name="flama frente" class="cls-5" d="M168.82,147.3s4-21.06-14.36-24.62c0,0,3.11,5,0,9,0,0-2.89-12-15.21-12,0,0-9.22.64-10.08-6.86,0,0-6.42,11.25,7.4,14.57,0,0,2.25.75,2.25,4.18s-2.36,4.39-4.07,4.39-3.86-.53-4.93-4.82c0,0-1.07,12.32,7.39,12.32,0,0,4-.53,4,4a2.72,2.72,0,0,1-2.84,3c-3.11,0-5.15-2.34-5.15-5.94,0,0-5.24,17.3,15.76,17.3,0,0,5.25.22,8.78-2.25,0,0-11.36.32-8.89-10.61,0,0,.32,4,3.32,4s4.71.21,4.71-3.75c0,0,.75-4.07-7.17-5.57,0,0-6.22-1.82-1.93-11.57a6.58,6.58,0,0,0,6.85,5.89C161,138,165.82,138.84,168.82,147.3Z" transform="translate(-50 -50)"/><g class="cls-6"><path id="flama_fondo" data-name="flama fondo" class="cls-7" d="M168.82,147.3s4-21.06-14.36-24.62c0,0,3.11,5,0,9,0,0-2.89-12-15.21-12,0,0-9.22.64-10.08-6.86,0,0-6.42,11.25,7.4,14.57,0,0,2.25.75,2.25,4.18s-2.36,4.39-4.07,4.39-3.86-.53-4.93-4.82c0,0-1.07,12.32,7.39,12.32,0,0,4-.53,4,4a2.72,2.72,0,0,1-2.84,3c-3.11,0-5.15-2.34-5.15-5.94,0,0-5.24,17.3,15.76,17.3,0,0,5.25.22,8.78-2.25,0,0-11.36.32-8.89-10.61,0,0,.32,4,3.32,4s4.71.21,4.71-3.75c0,0,.75-4.07-7.17-5.57,0,0-6.22-1.82-1.93-11.57a6.58,6.58,0,0,0,6.85,5.89C161,138,165.82,138.84,168.82,147.3Z" transform="translate(-50 -50)"/></g></svg>